<svg xmlns="http://www.w3.org/2000/svg" xmlns:xlink="http://www.w3.org/1999/xlink" width="200" zoomAndPan="magnify" viewBox="0 0 150 60" height="80" preserveAspectRatio="xMidYMid meet" version="1.0"><defs><g/><clipPath id="a9aa46e629"><rect x="0" width="61" y="0" height="60"/></clipPath><clipPath id="1c97996a16"><rect x="0" width="71" y="0" height="17"/></clipPath></defs><g fill="#2d2e53" fill-opacity="0.4"><g transform="translate(48.343741, 51.207858)"><g><path d="M 7.96875 0.234375 C 6.375 0.234375 5.007812 -0.109375 3.875 -0.796875 C 2.75 -1.484375 1.890625 -2.441406 1.296875 -3.671875 C 0.703125 -4.910156 0.40625 -6.351562 0.40625 -8 C 0.40625 -9.632812 0.703125 -11.066406 1.296875 -12.296875 C 1.890625 -13.523438 2.75 -14.484375 3.875 -15.171875 C 5.007812 -15.859375 6.375 -16.203125 7.96875 -16.203125 C 9.5625 -16.203125 10.921875 -15.859375 12.046875 -15.171875 C 13.179688 -14.484375 14.046875 -13.523438 14.640625 -12.296875 C 15.234375 -11.066406 15.53125 -9.632812 15.53125 -8 C 15.53125 -6.351562 15.234375 -4.910156 14.640625 -3.671875 C 14.046875 -2.441406 13.179688 -1.484375 12.046875 -0.796875 C 10.921875 -0.109375 9.5625 0.234375 7.96875 0.234375 Z M 6.546875 -7.96875 C 6.546875 -6.78125 6.675781 -5.816406 6.9375 -5.078125 C 7.195312 -4.335938 7.539062 -3.96875 7.96875 -3.96875 C 8.394531 -3.96875 8.738281 -4.335938 9 -5.078125 C 9.257812 -5.816406 9.390625 -6.78125 9.390625 -7.96875 C 9.390625 -9.164062 9.257812 -10.132812 9 -10.875 C 8.738281 -11.613281 8.394531 -11.984375 7.96875 -11.984375 C 7.539062 -11.984375 7.195312 -11.613281 6.9375 -10.875 C 6.675781 -10.132812 6.546875 -9.164062 6.546875 -7.96875 Z M 6.546875 -7.96875 "/></g></g></g><g fill="#2d2e53" fill-opacity="0.4"><g transform="translate(63.326025, 51.207858)"><g><path d="M 0.15625 -13.71875 C 0.15625 -14.09375 0.300781 -14.382812 0.59375 -14.59375 C 0.894531 -14.800781 1.273438 -14.96875 1.734375 -15.09375 C 2.191406 -15.226562 2.660156 -15.359375 3.140625 -15.484375 C 3.335938 -15.535156 3.582031 -15.601562 3.875 -15.6875 C 4.164062 -15.769531 4.460938 -15.847656 4.765625 -15.921875 C 5.066406 -16.003906 5.335938 -16.070312 5.578125 -16.125 C 5.816406 -16.175781 5.988281 -16.203125 6.09375 -16.203125 C 6.394531 -16.203125 6.679688 -16.085938 6.953125 -15.859375 C 7.222656 -15.628906 7.441406 -15.207031 7.609375 -14.59375 C 7.640625 -14.507812 7.675781 -14.441406 7.71875 -14.390625 C 7.769531 -14.335938 7.847656 -14.3125 7.953125 -14.3125 C 8.046875 -14.3125 8.21875 -14.40625 8.46875 -14.59375 C 8.726562 -14.789062 9.0625 -15.015625 9.46875 -15.265625 C 9.875 -15.515625 10.351562 -15.734375 10.90625 -15.921875 C 11.457031 -16.109375 12.085938 -16.203125 12.796875 -16.203125 C 13.753906 -16.203125 14.53125 -15.988281 15.125 -15.5625 C 15.726562 -15.132812 16.171875 -14.546875 16.453125 -13.796875 C 16.578125 -13.960938 16.804688 -14.175781 17.140625 -14.4375 C 17.484375 -14.707031 17.898438 -14.976562 18.390625 -15.25 C 18.890625 -15.53125 19.4375 -15.757812 20.03125 -15.9375 C 20.632812 -16.113281 21.25 -16.203125 21.875 -16.203125 C 22.84375 -16.203125 23.625 -15.988281 24.21875 -15.5625 C 24.820312 -15.132812 25.265625 -14.539062 25.546875 -13.78125 C 25.828125 -13.019531 25.96875 -12.148438 25.96875 -11.171875 L 25.96875 -7.984375 C 25.96875 -7.242188 26.035156 -6.566406 26.171875 -5.953125 C 26.316406 -5.335938 26.488281 -4.765625 26.6875 -4.234375 C 26.882812 -3.710938 27.054688 -3.21875 27.203125 -2.75 C 27.347656 -2.289062 27.421875 -1.847656 27.421875 -1.421875 C 27.421875 -1.035156 27.328125 -0.742188 27.140625 -0.546875 C 26.953125 -0.347656 26.722656 -0.207031 26.453125 -0.125 C 26.179688 -0.0507812 25.910156 -0.0078125 25.640625 0 C 25.378906 0 25.160156 0 24.984375 0 L 21.46875 0 C 21.226562 0 20.96875 -0.015625 20.6875 -0.046875 C 20.40625 -0.0859375 20.132812 -0.15625 19.875 -0.25 C 19.625 -0.351562 19.414062 -0.492188 19.25 -0.671875 C 19.082031 -0.859375 19 -1.109375 19 -1.421875 C 19 -2.128906 19.078125 -2.84375 19.234375 -3.5625 C 19.390625 -4.28125 19.539062 -5.003906 19.6875 -5.734375 C 19.84375 -6.472656 19.910156 -7.222656 19.890625 -7.984375 C 19.878906 -8.316406 19.851562 -8.664062 19.8125 -9.03125 C 19.769531 -9.394531 19.695312 -9.738281 19.59375 -10.0625 C 19.488281 -10.394531 19.332031 -10.660156 19.125 -10.859375 C 18.925781 -11.066406 18.664062 -11.171875 18.34375 -11.171875 C 18.03125 -11.171875 17.773438 -11.066406 17.578125 -10.859375 C 17.378906 -10.660156 17.226562 -10.394531 17.125 -10.0625 C 17.03125 -9.738281 16.960938 -9.394531 16.921875 -9.03125 C 16.890625 -8.664062 16.875 -8.316406 16.875 -7.984375 C 16.863281 -7.304688 16.929688 -6.65625 17.078125 -6.03125 C 17.234375 -5.414062 17.40625 -4.832031 17.59375 -4.28125 C 17.789062 -3.726562 17.960938 -3.210938 18.109375 -2.734375 C 18.253906 -2.253906 18.328125 -1.816406 18.328125 -1.421875 C 18.328125 -1.066406 18.25 -0.789062 18.09375 -0.59375 C 17.945312 -0.394531 17.75 -0.253906 17.5 -0.171875 C 17.257812 -0.0976562 16.992188 -0.0507812 16.703125 -0.03125 C 16.421875 -0.0078125 16.15625 0 15.90625 0 L 12.375 0 C 12.144531 0 11.882812 -0.015625 11.59375 -0.046875 C 11.3125 -0.0859375 11.039062 -0.15625 10.78125 -0.25 C 10.53125 -0.351562 10.320312 -0.492188 10.15625 -0.671875 C 10 -0.859375 9.921875 -1.109375 9.921875 -1.421875 C 9.921875 -2.128906 9.992188 -2.84375 10.140625 -3.5625 C 10.296875 -4.28125 10.453125 -5.003906 10.609375 -5.734375 C 10.765625 -6.472656 10.832031 -7.222656 10.8125 -7.984375 C 10.800781 -8.316406 10.773438 -8.664062 10.734375 -9.03125 C 10.691406 -9.394531 10.613281 -9.738281 10.5 -10.0625 C 10.394531 -10.394531 10.238281 -10.660156 10.03125 -10.859375 C 9.832031 -11.066406 9.578125 -11.171875 9.265625 -11.171875 C 8.941406 -11.171875 8.679688 -11.066406 8.484375 -10.859375 C 8.285156 -10.660156 8.132812 -10.394531 8.03125 -10.0625 C 7.9375 -9.738281 7.867188 -9.390625 7.828125 -9.015625 C 7.796875 -8.648438 7.78125 -8.304688 7.78125 -7.984375 C 7.78125 -7.367188 7.847656 -6.765625 7.984375 -6.171875 C 8.128906 -5.585938 8.300781 -5.023438 8.5 -4.484375 C 8.695312 -3.941406 8.867188 -3.414062 9.015625 -2.90625 C 9.171875 -2.394531 9.25 -1.898438 9.25 -1.421875 C 9.25 -1.109375 9.164062 -0.859375 9 -0.671875 C 8.832031 -0.492188 8.617188 -0.351562 8.359375 -0.25 C 8.109375 -0.15625 7.84375 -0.0859375 7.5625 -0.046875 C 7.28125 -0.015625 7.019531 0 6.78125 0 L 2.703125 0 C 2.523438 0 2.300781 0 2.03125 0 C 1.769531 -0.0078125 1.503906 -0.0507812 1.234375 -0.125 C 0.960938 -0.207031 0.734375 -0.347656 0.546875 -0.546875 C 0.359375 -0.742188 0.265625 -1.035156 0.265625 -1.421875 C 0.265625 -1.847656 0.335938 -2.289062 0.484375 -2.75 C 0.628906 -3.21875 0.800781 -3.710938 1 -4.234375 C 1.195312 -4.765625 1.363281 -5.335938 1.5 -5.953125 C 1.644531 -6.566406 1.71875 -7.242188 1.71875 -7.984375 C 1.71875 -8.679688 1.664062 -9.273438 1.5625 -9.765625 C 1.457031 -10.253906 1.328125 -10.675781 1.171875 -11.03125 C 1.015625 -11.382812 0.859375 -11.695312 0.703125 -11.96875 C 0.554688 -12.25 0.425781 -12.523438 0.3125 -12.796875 C 0.207031 -13.066406 0.15625 -13.375 0.15625 -13.71875 Z M 0.15625 -13.71875 "/></g></g></g><g fill="#2d2e53" fill-opacity="0.4"><g transform="translate(89.952431, 51.207858)"><g><path d="M 0.40625 -7.984375 C 0.40625 -8.992188 0.578125 -9.988281 0.921875 -10.96875 C 1.265625 -11.945312 1.789062 -12.828125 2.5 -13.609375 C 3.207031 -14.398438 4.097656 -15.03125 5.171875 -15.5 C 6.253906 -15.96875 7.535156 -16.203125 9.015625 -16.203125 C 9.835938 -16.203125 10.625 -16.097656 11.375 -15.890625 C 12.132812 -15.679688 12.8125 -15.367188 13.40625 -14.953125 C 14 -14.535156 14.46875 -14.007812 14.8125 -13.375 C 15.15625 -12.75 15.328125 -12.015625 15.328125 -11.171875 C 15.328125 -10.242188 15.1875 -9.441406 14.90625 -8.765625 C 14.625 -8.085938 14.242188 -7.515625 13.765625 -7.046875 C 13.296875 -6.578125 12.773438 -6.1875 12.203125 -5.875 C 11.628906 -5.570312 11.046875 -5.332031 10.453125 -5.15625 C 9.898438 -4.988281 9.414062 -4.910156 9 -4.921875 C 8.582031 -4.929688 8.25 -4.9375 8 -4.9375 C 7.863281 -4.9375 7.757812 -4.921875 7.6875 -4.890625 C 7.613281 -4.867188 7.578125 -4.804688 7.578125 -4.703125 C 7.578125 -4.535156 7.671875 -4.398438 7.859375 -4.296875 C 8.046875 -4.191406 8.269531 -4.113281 8.53125 -4.0625 C 8.789062 -4.019531 9.03125 -4 9.25 -4 C 9.820312 -4 10.304688 -4.066406 10.703125 -4.203125 C 11.097656 -4.347656 11.441406 -4.507812 11.734375 -4.6875 C 12.035156 -4.875 12.320312 -5.035156 12.59375 -5.171875 C 12.875 -5.316406 13.179688 -5.390625 13.515625 -5.390625 C 13.867188 -5.390625 14.175781 -5.300781 14.4375 -5.125 C 14.695312 -4.957031 14.910156 -4.738281 15.078125 -4.46875 C 15.242188 -4.195312 15.363281 -3.914062 15.4375 -3.625 C 15.519531 -3.332031 15.5625 -3.070312 15.5625 -2.84375 C 15.5625 -2.363281 15.332031 -1.882812 14.875 -1.40625 C 14.414062 -0.9375 13.703125 -0.546875 12.734375 -0.234375 C 11.773438 0.078125 10.535156 0.234375 9.015625 0.234375 C 7.617188 0.234375 6.382812 0.00390625 5.3125 -0.453125 C 4.238281 -0.921875 3.335938 -1.546875 2.609375 -2.328125 C 1.878906 -3.117188 1.328125 -4.003906 0.953125 -4.984375 C 0.585938 -5.960938 0.40625 -6.960938 0.40625 -7.984375 Z M 6.5625 -9.671875 C 6.289062 -8.992188 6.191406 -8.441406 6.265625 -8.015625 C 6.347656 -7.597656 6.585938 -7.390625 6.984375 -7.390625 C 7.378906 -7.390625 7.78125 -7.597656 8.1875 -8.015625 C 8.601562 -8.441406 8.945312 -8.992188 9.21875 -9.671875 C 9.488281 -10.367188 9.582031 -10.925781 9.5 -11.34375 C 9.425781 -11.769531 9.1875 -11.984375 8.78125 -11.984375 C 8.382812 -11.984375 7.984375 -11.769531 7.578125 -11.34375 C 7.179688 -10.925781 6.84375 -10.367188 6.5625 -9.671875 Z M 6.5625 -9.671875 "/></g></g></g><g fill="#2d2e53" fill-opacity="0.4"><g transform="translate(105.605705, 51.207858)"><g><path d="M 0.15625 -13.71875 C 0.15625 -14.09375 0.300781 -14.382812 0.59375 -14.59375 C 0.894531 -14.800781 1.273438 -14.96875 1.734375 -15.09375 C 2.191406 -15.226562 2.660156 -15.359375 3.140625 -15.484375 C 3.335938 -15.535156 3.582031 -15.601562 3.875 -15.6875 C 4.164062 -15.769531 4.460938 -15.847656 4.765625 -15.921875 C 5.066406 -16.003906 5.335938 -16.070312 5.578125 -16.125 C 5.816406 -16.175781 5.988281 -16.203125 6.09375 -16.203125 C 6.394531 -16.203125 6.679688 -16.085938 6.953125 -15.859375 C 7.222656 -15.628906 7.441406 -15.207031 7.609375 -14.59375 C 7.640625 -14.507812 7.675781 -14.441406 7.71875 -14.390625 C 7.769531 -14.335938 7.847656 -14.3125 7.953125 -14.3125 C 8.046875 -14.3125 8.21875 -14.40625 8.46875 -14.59375 C 8.726562 -14.789062 9.0625 -15.015625 9.46875 -15.265625 C 9.875 -15.515625 10.351562 -15.734375 10.90625 -15.921875 C 11.457031 -16.109375 12.085938 -16.203125 12.796875 -16.203125 C 13.765625 -16.203125 14.546875 -15.988281 15.140625 -15.5625 C 15.734375 -15.132812 16.171875 -14.539062 16.453125 -13.78125 C 16.734375 -13.019531 16.875 -12.148438 16.875 -11.171875 L 16.875 -7.984375 C 16.875 -7.242188 16.945312 -6.566406 17.09375 -5.953125 C 17.238281 -5.335938 17.410156 -4.765625 17.609375 -4.234375 C 17.804688 -3.710938 17.972656 -3.21875 18.109375 -2.75 C 18.253906 -2.289062 18.328125 -1.847656 18.328125 -1.421875 C 18.328125 -1.035156 18.234375 -0.742188 18.046875 -0.546875 C 17.859375 -0.347656 17.628906 -0.207031 17.359375 -0.125 C 17.085938 -0.0507812 16.816406 -0.0078125 16.546875 0 C 16.285156 0 16.070312 0 15.90625 0 L 12.921875 0 C 12.785156 0 12.597656 0 12.359375 0 C 12.117188 0 11.859375 -0.015625 11.578125 -0.046875 C 11.296875 -0.0859375 11.023438 -0.15625 10.765625 -0.25 C 10.515625 -0.351562 10.3125 -0.492188 10.15625 -0.671875 C 10 -0.859375 9.921875 -1.109375 9.921875 -1.421875 C 9.921875 -2.128906 9.992188 -2.84375 10.140625 -3.5625 C 10.296875 -4.28125 10.453125 -5.003906 10.609375 -5.734375 C 10.765625 -6.472656 10.832031 -7.222656 10.8125 -7.984375 C 10.800781 -8.316406 10.773438 -8.664062 10.734375 -9.03125 C 10.691406 -9.394531 10.613281 -9.738281 10.5 -10.0625 C 10.394531 -10.394531 10.238281 -10.660156 10.03125 -10.859375 C 9.832031 -11.066406 9.578125 -11.171875 9.265625 -11.171875 C 8.921875 -11.171875 8.644531 -11.066406 8.4375 -10.859375 C 8.238281 -10.660156 8.09375 -10.394531 8 -10.0625 C 7.90625 -9.738281 7.84375 -9.390625 7.8125 -9.015625 C 7.789062 -8.648438 7.78125 -8.304688 7.78125 -7.984375 C 7.78125 -7.367188 7.851562 -6.757812 8 -6.15625 C 8.144531 -5.5625 8.3125 -4.988281 8.5 -4.4375 C 8.695312 -3.882812 8.867188 -3.351562 9.015625 -2.84375 C 9.171875 -2.34375 9.25 -1.867188 9.25 -1.421875 C 9.25 -1.109375 9.164062 -0.859375 9 -0.671875 C 8.84375 -0.492188 8.632812 -0.351562 8.375 -0.25 C 8.125 -0.15625 7.859375 -0.0859375 7.578125 -0.046875 C 7.304688 -0.015625 7.050781 0 6.8125 0 C 6.570312 0 6.382812 0 6.25 0 L 2.703125 0 C 2.523438 0 2.300781 0 2.03125 0 C 1.769531 -0.0078125 1.503906 -0.0507812 1.234375 -0.125 C 0.960938 -0.207031 0.734375 -0.347656 0.546875 -0.546875 C 0.359375 -0.742188 0.265625 -1.035156 0.265625 -1.421875 C 0.265625 -1.847656 0.335938 -2.289062 0.484375 -2.75 C 0.628906 -3.21875 0.800781 -3.710938 1 -4.234375 C 1.195312 -4.765625 1.363281 -5.335938 1.5 -5.953125 C 1.644531 -6.566406 1.71875 -7.242188 1.71875 -7.984375 C 1.71875 -8.679688 1.664062 -9.273438 1.5625 -9.765625 C 1.457031 -10.253906 1.328125 -10.675781 1.171875 -11.03125 C 1.015625 -11.382812 0.859375 -11.695312 0.703125 -11.96875 C 0.554688 -12.25 0.425781 -12.523438 0.3125 -12.796875 C 0.207031 -13.066406 0.15625 -13.375 0.15625 -13.71875 Z M 0.15625 -13.71875 "/></g></g></g><g fill="#2d2e53" fill-opacity="0.4"><g transform="translate(123.78263, 51.207858)"><g><path d="M 5.484375 0.234375 C 4.492188 0.234375 3.59375 0.0234375 2.78125 -0.390625 C 1.976562 -0.804688 1.335938 -1.414062 0.859375 -2.21875 C 0.390625 -3.03125 0.15625 -4.003906 0.15625 -5.140625 C 0.15625 -5.898438 0.25 -6.625 0.4375 -7.3125 C 0.632812 -8.007812 0.875 -8.664062 1.15625 -9.28125 C 1.445312 -9.894531 1.734375 -10.46875 2.015625 -11 C 2.296875 -11.53125 2.53125 -12.015625 2.71875 -12.453125 C 2.914062 -12.898438 3.015625 -13.300781 3.015625 -13.65625 C 3.015625 -13.925781 2.976562 -14.109375 2.90625 -14.203125 C 2.832031 -14.304688 2.722656 -14.359375 2.578125 -14.359375 C 2.429688 -14.359375 2.253906 -14.332031 2.046875 -14.28125 C 1.847656 -14.226562 1.632812 -14.203125 1.40625 -14.203125 C 0.957031 -14.203125 0.640625 -14.289062 0.453125 -14.46875 C 0.265625 -14.65625 0.171875 -14.914062 0.171875 -15.25 C 0.171875 -15.65625 0.425781 -16.140625 0.9375 -16.703125 C 1.445312 -17.265625 2.109375 -17.921875 2.921875 -18.671875 C 3.398438 -19.117188 3.859375 -19.554688 4.296875 -19.984375 C 4.742188 -20.421875 5.140625 -20.785156 5.484375 -21.078125 C 5.828125 -21.367188 6.09375 -21.515625 6.28125 -21.515625 C 6.488281 -21.515625 6.644531 -21.441406 6.75 -21.296875 C 6.851562 -21.148438 6.921875 -20.96875 6.953125 -20.75 C 6.992188 -20.539062 7.015625 -20.34375 7.015625 -20.15625 L 7.015625 -15.96875 L 7.671875 -15.96875 C 7.921875 -15.96875 8.125 -15.882812 8.28125 -15.71875 C 8.445312 -15.5625 8.53125 -15.359375 8.53125 -15.109375 L 8.53125 -15.0625 C 8.53125 -14.800781 8.445312 -14.59375 8.28125 -14.4375 C 8.125 -14.28125 7.921875 -14.203125 7.671875 -14.203125 L 7.015625 -14.203125 L 7.015625 -7.984375 C 7.015625 -7.003906 7.085938 -6.203125 7.234375 -5.578125 C 7.378906 -4.960938 7.5625 -4.472656 7.78125 -4.109375 C 8.007812 -3.742188 8.234375 -3.445312 8.453125 -3.21875 C 8.679688 -3 8.867188 -2.800781 9.015625 -2.625 C 9.171875 -2.445312 9.25 -2.234375 9.25 -1.984375 C 9.25 -1.628906 9.132812 -1.3125 8.90625 -1.03125 C 8.675781 -0.757812 8.375 -0.523438 8 -0.328125 C 7.625 -0.140625 7.210938 0 6.765625 0.09375 C 6.328125 0.1875 5.898438 0.234375 5.484375 0.234375 Z M 5.484375 0.234375 "/></g></g></g><g fill="#2d2e53" fill-opacity="0.4"><g transform="translate(131.752822, 51.207858)"><g><path d="M 7.96875 0.234375 C 6.375 0.234375 5.007812 -0.109375 3.875 -0.796875 C 2.75 -1.484375 1.890625 -2.441406 1.296875 -3.671875 C 0.703125 -4.910156 0.40625 -6.351562 0.40625 -8 C 0.40625 -9.632812 0.703125 -11.066406 1.296875 -12.296875 C 1.890625 -13.523438 2.75 -14.484375 3.875 -15.171875 C 5.007812 -15.859375 6.375 -16.203125 7.96875 -16.203125 C 9.5625 -16.203125 10.921875 -15.859375 12.046875 -15.171875 C 13.179688 -14.484375 14.046875 -13.523438 14.640625 -12.296875 C 15.234375 -11.066406 15.53125 -9.632812 15.53125 -8 C 15.53125 -6.351562 15.234375 -4.910156 14.640625 -3.671875 C 14.046875 -2.441406 13.179688 -1.484375 12.046875 -0.796875 C 10.921875 -0.109375 9.5625 0.234375 7.96875 0.234375 Z M 6.546875 -7.96875 C 6.546875 -6.78125 6.675781 -5.816406 6.9375 -5.078125 C 7.195312 -4.335938 7.539062 -3.96875 7.96875 -3.96875 C 8.394531 -3.96875 8.738281 -4.335938 9 -5.078125 C 9.257812 -5.816406 9.390625 -6.78125 9.390625 -7.96875 C 9.390625 -9.164062 9.257812 -10.132812 9 -10.875 C 8.738281 -11.613281 8.394531 -11.984375 7.96875 -11.984375 C 7.539062 -11.984375 7.195312 -11.613281 6.9375 -10.875 C 6.675781 -10.132812 6.546875 -9.164062 6.546875 -7.96875 Z M 6.546875 -7.96875 "/></g></g></g><g fill="#2c2c54" fill-opacity="1"><g transform="translate(49.346718, 52.210832)"><g><path d="M 7.96875 0.234375 C 6.375 0.234375 5.007812 -0.109375 3.875 -0.796875 C 2.75 -1.484375 1.890625 -2.441406 1.296875 -3.671875 C 0.703125 -4.910156 0.40625 -6.351562 0.40625 -8 C 0.40625 -9.632812 0.703125 -11.066406 1.296875 -12.296875 C 1.890625 -13.523438 2.75 -14.484375 3.875 -15.171875 C 5.007812 -15.859375 6.375 -16.203125 7.96875 -16.203125 C 9.5625 -16.203125 10.921875 -15.859375 12.046875 -15.171875 C 13.179688 -14.484375 14.046875 -13.523438 14.640625 -12.296875 C 15.234375 -11.066406 15.53125 -9.632812 15.53125 -8 C 15.53125 -6.351562 15.234375 -4.910156 14.640625 -3.671875 C 14.046875 -2.441406 13.179688 -1.484375 12.046875 -0.796875 C 10.921875 -0.109375 9.5625 0.234375 7.96875 0.234375 Z M 6.546875 -7.96875 C 6.546875 -6.78125 6.675781 -5.816406 6.9375 -5.078125 C 7.195312 -4.335938 7.539062 -3.96875 7.96875 -3.96875 C 8.394531 -3.96875 8.738281 -4.335938 9 -5.078125 C 9.257812 -5.816406 9.390625 -6.78125 9.390625 -7.96875 C 9.390625 -9.164062 9.257812 -10.132812 9 -10.875 C 8.738281 -11.613281 8.394531 -11.984375 7.96875 -11.984375 C 7.539062 -11.984375 7.195312 -11.613281 6.9375 -10.875 C 6.675781 -10.132812 6.546875 -9.164062 6.546875 -7.96875 Z M 6.546875 -7.96875 "/></g></g></g><g fill="#2c2c54" fill-opacity="1"><g transform="translate(64.329001, 52.210832)"><g><path d="M 0.15625 -13.71875 C 0.15625 -14.09375 0.300781 -14.382812 0.59375 -14.59375 C 0.894531 -14.800781 1.273438 -14.96875 1.734375 -15.09375 C 2.191406 -15.226562 2.660156 -15.359375 3.140625 -15.484375 C 3.335938 -15.535156 3.582031 -15.601562 3.875 -15.6875 C 4.164062 -15.769531 4.460938 -15.847656 4.765625 -15.921875 C 5.066406 -16.003906 5.335938 -16.070312 5.578125 -16.125 C 5.816406 -16.175781 5.988281 -16.203125 6.09375 -16.203125 C 6.394531 -16.203125 6.679688 -16.085938 6.953125 -15.859375 C 7.222656 -15.628906 7.441406 -15.207031 7.609375 -14.59375 C 7.640625 -14.507812 7.675781 -14.441406 7.71875 -14.390625 C 7.769531 -14.335938 7.847656 -14.3125 7.953125 -14.3125 C 8.046875 -14.3125 8.21875 -14.40625 8.46875 -14.59375 C 8.726562 -14.789062 9.0625 -15.015625 9.46875 -15.265625 C 9.875 -15.515625 10.351562 -15.734375 10.90625 -15.921875 C 11.457031 -16.109375 12.085938 -16.203125 12.796875 -16.203125 C 13.753906 -16.203125 14.53125 -15.988281 15.125 -15.5625 C 15.726562 -15.132812 16.171875 -14.546875 16.453125 -13.796875 C 16.578125 -13.960938 16.804688 -14.175781 17.140625 -14.4375 C 17.484375 -14.707031 17.898438 -14.976562 18.390625 -15.25 C 18.890625 -15.53125 19.4375 -15.757812 20.03125 -15.9375 C 20.632812 -16.113281 21.25 -16.203125 21.875 -16.203125 C 22.84375 -16.203125 23.625 -15.988281 24.21875 -15.5625 C 24.820312 -15.132812 25.265625 -14.539062 25.546875 -13.78125 C 25.828125 -13.019531 25.96875 -12.148438 25.96875 -11.171875 L 25.96875 -7.984375 C 25.96875 -7.242188 26.035156 -6.566406 26.171875 -5.953125 C 26.316406 -5.335938 26.488281 -4.765625 26.6875 -4.234375 C 26.882812 -3.710938 27.054688 -3.21875 27.203125 -2.75 C 27.347656 -2.289062 27.421875 -1.847656 27.421875 -1.421875 C 27.421875 -1.035156 27.328125 -0.742188 27.140625 -0.546875 C 26.953125 -0.347656 26.722656 -0.207031 26.453125 -0.125 C 26.179688 -0.0507812 25.910156 -0.0078125 25.640625 0 C 25.378906 0 25.160156 0 24.984375 0 L 21.46875 0 C 21.226562 0 20.96875 -0.015625 20.6875 -0.046875 C 20.40625 -0.0859375 20.132812 -0.15625 19.875 -0.25 C 19.625 -0.351562 19.414062 -0.492188 19.25 -0.671875 C 19.082031 -0.859375 19 -1.109375 19 -1.421875 C 19 -2.128906 19.078125 -2.84375 19.234375 -3.5625 C 19.390625 -4.28125 19.539062 -5.003906 19.6875 -5.734375 C 19.84375 -6.472656 19.910156 -7.222656 19.890625 -7.984375 C 19.878906 -8.316406 19.851562 -8.664062 19.8125 -9.03125 C 19.769531 -9.394531 19.695312 -9.738281 19.59375 -10.0625 C 19.488281 -10.394531 19.332031 -10.660156 19.125 -10.859375 C 18.925781 -11.066406 18.664062 -11.171875 18.34375 -11.171875 C 18.03125 -11.171875 17.773438 -11.066406 17.578125 -10.859375 C 17.378906 -10.660156 17.226562 -10.394531 17.125 -10.0625 C 17.03125 -9.738281 16.960938 -9.394531 16.921875 -9.03125 C 16.890625 -8.664062 16.875 -8.316406 16.875 -7.984375 C 16.863281 -7.304688 16.929688 -6.65625 17.078125 -6.03125 C 17.234375 -5.414062 17.40625 -4.832031 17.59375 -4.28125 C 17.789062 -3.726562 17.960938 -3.210938 18.109375 -2.734375 C 18.253906 -2.253906 18.328125 -1.816406 18.328125 -1.421875 C 18.328125 -1.066406 18.25 -0.789062 18.09375 -0.59375 C 17.945312 -0.394531 17.75 -0.253906 17.5 -0.171875 C 17.257812 -0.0976562 16.992188 -0.0507812 16.703125 -0.03125 C 16.421875 -0.0078125 16.15625 0 15.90625 0 L 12.375 0 C 12.144531 0 11.882812 -0.015625 11.59375 -0.046875 C 11.3125 -0.0859375 11.039062 -0.15625 10.78125 -0.25 C 10.53125 -0.351562 10.320312 -0.492188 10.15625 -0.671875 C 10 -0.859375 9.921875 -1.109375 9.921875 -1.421875 C 9.921875 -2.128906 9.992188 -2.84375 10.140625 -3.5625 C 10.296875 -4.28125 10.453125 -5.003906 10.609375 -5.734375 C 10.765625 -6.472656 10.832031 -7.222656 10.8125 -7.984375 C 10.800781 -8.316406 10.773438 -8.664062 10.734375 -9.03125 C 10.691406 -9.394531 10.613281 -9.738281 10.5 -10.0625 C 10.394531 -10.394531 10.238281 -10.660156 10.03125 -10.859375 C 9.832031 -11.066406 9.578125 -11.171875 9.265625 -11.171875 C 8.941406 -11.171875 8.679688 -11.066406 8.484375 -10.859375 C 8.285156 -10.660156 8.132812 -10.394531 8.03125 -10.0625 C 7.9375 -9.738281 7.867188 -9.390625 7.828125 -9.015625 C 7.796875 -8.648438 7.78125 -8.304688 7.78125 -7.984375 C 7.78125 -7.367188 7.847656 -6.765625 7.984375 -6.171875 C 8.128906 -5.585938 8.300781 -5.023438 8.5 -4.484375 C 8.695312 -3.941406 8.867188 -3.414062 9.015625 -2.90625 C 9.171875 -2.394531 9.25 -1.898438 9.25 -1.421875 C 9.25 -1.109375 9.164062 -0.859375 9 -0.671875 C 8.832031 -0.492188 8.617188 -0.351562 8.359375 -0.25 C 8.109375 -0.15625 7.84375 -0.0859375 7.5625 -0.046875 C 7.28125 -0.015625 7.019531 0 6.78125 0 L 2.703125 0 C 2.523438 0 2.300781 0 2.03125 0 C 1.769531 -0.0078125 1.503906 -0.0507812 1.234375 -0.125 C 0.960938 -0.207031 0.734375 -0.347656 0.546875 -0.546875 C 0.359375 -0.742188 0.265625 -1.035156 0.265625 -1.421875 C 0.265625 -1.847656 0.335938 -2.289062 0.484375 -2.75 C 0.628906 -3.21875 0.800781 -3.710938 1 -4.234375 C 1.195312 -4.765625 1.363281 -5.335938 1.5 -5.953125 C 1.644531 -6.566406 1.71875 -7.242188 1.71875 -7.984375 C 1.71875 -8.679688 1.664062 -9.273438 1.5625 -9.765625 C 1.457031 -10.253906 1.328125 -10.675781 1.171875 -11.03125 C 1.015625 -11.382812 0.859375 -11.695312 0.703125 -11.96875 C 0.554688 -12.25 0.425781 -12.523438 0.3125 -12.796875 C 0.207031 -13.066406 0.15625 -13.375 0.15625 -13.71875 Z M 0.15625 -13.71875 "/></g></g></g><g fill="#2c2c54" fill-opacity="1"><g transform="translate(90.955408, 52.210832)"><g><path d="M 0.40625 -7.984375 C 0.40625 -8.992188 0.578125 -9.988281 0.921875 -10.96875 C 1.265625 -11.945312 1.789062 -12.828125 2.5 -13.609375 C 3.207031 -14.398438 4.097656 -15.03125 5.171875 -15.5 C 6.253906 -15.96875 7.535156 -16.203125 9.015625 -16.203125 C 9.835938 -16.203125 10.625 -16.097656 11.375 -15.890625 C 12.132812 -15.679688 12.8125 -15.367188 13.40625 -14.953125 C 14 -14.535156 14.46875 -14.007812 14.8125 -13.375 C 15.15625 -12.75 15.328125 -12.015625 15.328125 -11.171875 C 15.328125 -10.242188 15.1875 -9.441406 14.90625 -8.765625 C 14.625 -8.085938 14.242188 -7.515625 13.765625 -7.046875 C 13.296875 -6.578125 12.773438 -6.1875 12.203125 -5.875 C 11.628906 -5.570312 11.046875 -5.332031 10.453125 -5.15625 C 9.898438 -4.988281 9.414062 -4.910156 9 -4.921875 C 8.582031 -4.929688 8.25 -4.9375 8 -4.9375 C 7.863281 -4.9375 7.757812 -4.921875 7.6875 -4.890625 C 7.613281 -4.867188 7.578125 -4.804688 7.578125 -4.703125 C 7.578125 -4.535156 7.671875 -4.398438 7.859375 -4.296875 C 8.046875 -4.191406 8.269531 -4.113281 8.53125 -4.0625 C 8.789062 -4.019531 9.03125 -4 9.25 -4 C 9.820312 -4 10.304688 -4.066406 10.703125 -4.203125 C 11.097656 -4.347656 11.441406 -4.507812 11.734375 -4.6875 C 12.035156 -4.875 12.320312 -5.035156 12.59375 -5.171875 C 12.875 -5.316406 13.179688 -5.390625 13.515625 -5.390625 C 13.867188 -5.390625 14.175781 -5.300781 14.4375 -5.125 C 14.695312 -4.957031 14.910156 -4.738281 15.078125 -4.46875 C 15.242188 -4.195312 15.363281 -3.914062 15.4375 -3.625 C 15.519531 -3.332031 15.5625 -3.070312 15.5625 -2.84375 C 15.5625 -2.363281 15.332031 -1.882812 14.875 -1.40625 C 14.414062 -0.9375 13.703125 -0.546875 12.734375 -0.234375 C 11.773438 0.078125 10.535156 0.234375 9.015625 0.234375 C 7.617188 0.234375 6.382812 0.00390625 5.3125 -0.453125 C 4.238281 -0.921875 3.335938 -1.546875 2.609375 -2.328125 C 1.878906 -3.117188 1.328125 -4.003906 0.953125 -4.984375 C 0.585938 -5.960938 0.40625 -6.960938 0.40625 -7.984375 Z M 6.5625 -9.671875 C 6.289062 -8.992188 6.191406 -8.441406 6.265625 -8.015625 C 6.347656 -7.597656 6.585938 -7.390625 6.984375 -7.390625 C 7.378906 -7.390625 7.78125 -7.597656 8.1875 -8.015625 C 8.601562 -8.441406 8.945312 -8.992188 9.21875 -9.671875 C 9.488281 -10.367188 9.582031 -10.925781 9.5 -11.34375 C 9.425781 -11.769531 9.1875 -11.984375 8.78125 -11.984375 C 8.382812 -11.984375 7.984375 -11.769531 7.578125 -11.34375 C 7.179688 -10.925781 6.84375 -10.367188 6.5625 -9.671875 Z M 6.5625 -9.671875 "/></g></g></g><g fill="#2c2c54" fill-opacity="1"><g transform="translate(106.608682, 52.210832)"><g><path d="M 0.15625 -13.71875 C 0.15625 -14.09375 0.300781 -14.382812 0.59375 -14.59375 C 0.894531 -14.800781 1.273438 -14.96875 1.734375 -15.09375 C 2.191406 -15.226562 2.660156 -15.359375 3.140625 -15.484375 C 3.335938 -15.535156 3.582031 -15.601562 3.875 -15.6875 C 4.164062 -15.769531 4.460938 -15.847656 4.765625 -15.921875 C 5.066406 -16.003906 5.335938 -16.070312 5.578125 -16.125 C 5.816406 -16.175781 5.988281 -16.203125 6.09375 -16.203125 C 6.394531 -16.203125 6.679688 -16.085938 6.953125 -15.859375 C 7.222656 -15.628906 7.441406 -15.207031 7.609375 -14.59375 C 7.640625 -14.507812 7.675781 -14.441406 7.71875 -14.390625 C 7.769531 -14.335938 7.847656 -14.3125 7.953125 -14.3125 C 8.046875 -14.3125 8.21875 -14.40625 8.46875 -14.59375 C 8.726562 -14.789062 9.0625 -15.015625 9.46875 -15.265625 C 9.875 -15.515625 10.351562 -15.734375 10.90625 -15.921875 C 11.457031 -16.109375 12.085938 -16.203125 12.796875 -16.203125 C 13.765625 -16.203125 14.546875 -15.988281 15.140625 -15.5625 C 15.734375 -15.132812 16.171875 -14.539062 16.453125 -13.78125 C 16.734375 -13.019531 16.875 -12.148438 16.875 -11.171875 L 16.875 -7.984375 C 16.875 -7.242188 16.945312 -6.566406 17.09375 -5.953125 C 17.238281 -5.335938 17.410156 -4.765625 17.609375 -4.234375 C 17.804688 -3.710938 17.972656 -3.21875 18.109375 -2.75 C 18.253906 -2.289062 18.328125 -1.847656 18.328125 -1.421875 C 18.328125 -1.035156 18.234375 -0.742188 18.046875 -0.546875 C 17.859375 -0.347656 17.628906 -0.207031 17.359375 -0.125 C 17.085938 -0.0507812 16.816406 -0.0078125 16.546875 0 C 16.285156 0 16.070312 0 15.90625 0 L 12.921875 0 C 12.785156 0 12.597656 0 12.359375 0 C 12.117188 0 11.859375 -0.015625 11.578125 -0.046875 C 11.296875 -0.0859375 11.023438 -0.15625 10.765625 -0.25 C 10.515625 -0.351562 10.3125 -0.492188 10.15625 -0.671875 C 10 -0.859375 9.921875 -1.109375 9.921875 -1.421875 C 9.921875 -2.128906 9.992188 -2.84375 10.140625 -3.5625 C 10.296875 -4.28125 10.453125 -5.003906 10.609375 -5.734375 C 10.765625 -6.472656 10.832031 -7.222656 10.8125 -7.984375 C 10.800781 -8.316406 10.773438 -8.664062 10.734375 -9.03125 C 10.691406 -9.394531 10.613281 -9.738281 10.5 -10.0625 C 10.394531 -10.394531 10.238281 -10.660156 10.03125 -10.859375 C 9.832031 -11.066406 9.578125 -11.171875 9.265625 -11.171875 C 8.921875 -11.171875 8.644531 -11.066406 8.4375 -10.859375 C 8.238281 -10.660156 8.09375 -10.394531 8 -10.0625 C 7.90625 -9.738281 7.84375 -9.390625 7.8125 -9.015625 C 7.789062 -8.648438 7.78125 -8.304688 7.78125 -7.984375 C 7.78125 -7.367188 7.851562 -6.757812 8 -6.15625 C 8.144531 -5.5625 8.3125 -4.988281 8.5 -4.4375 C 8.695312 -3.882812 8.867188 -3.351562 9.015625 -2.84375 C 9.171875 -2.34375 9.25 -1.867188 9.25 -1.421875 C 9.25 -1.109375 9.164062 -0.859375 9 -0.671875 C 8.84375 -0.492188 8.632812 -0.351562 8.375 -0.25 C 8.125 -0.15625 7.859375 -0.0859375 7.578125 -0.046875 C 7.304688 -0.015625 7.050781 0 6.8125 0 C 6.570312 0 6.382812 0 6.25 0 L 2.703125 0 C 2.523438 0 2.300781 0 2.03125 0 C 1.769531 -0.0078125 1.503906 -0.0507812 1.234375 -0.125 C 0.960938 -0.207031 0.734375 -0.347656 0.546875 -0.546875 C 0.359375 -0.742188 0.265625 -1.035156 0.265625 -1.421875 C 0.265625 -1.847656 0.335938 -2.289062 0.484375 -2.75 C 0.628906 -3.21875 0.800781 -3.710938 1 -4.234375 C 1.195312 -4.765625 1.363281 -5.335938 1.5 -5.953125 C 1.644531 -6.566406 1.71875 -7.242188 1.71875 -7.984375 C 1.71875 -8.679688 1.664062 -9.273438 1.5625 -9.765625 C 1.457031 -10.253906 1.328125 -10.675781 1.171875 -11.03125 C 1.015625 -11.382812 0.859375 -11.695312 0.703125 -11.96875 C 0.554688 -12.25 0.425781 -12.523438 0.3125 -12.796875 C 0.207031 -13.066406 0.15625 -13.375 0.15625 -13.71875 Z M 0.15625 -13.71875 "/></g></g></g><g fill="#2c2c54" fill-opacity="1"><g transform="translate(124.785607, 52.210832)"><g><path d="M 5.484375 0.234375 C 4.492188 0.234375 3.59375 0.0234375 2.78125 -0.390625 C 1.976562 -0.804688 1.335938 -1.414062 0.859375 -2.21875 C 0.390625 -3.03125 0.15625 -4.003906 0.15625 -5.140625 C 0.15625 -5.898438 0.25 -6.625 0.4375 -7.3125 C 0.632812 -8.007812 0.875 -8.664062 1.15625 -9.28125 C 1.445312 -9.894531 1.734375 -10.46875 2.015625 -11 C 2.296875 -11.53125 2.53125 -12.015625 2.71875 -12.453125 C 2.914062 -12.898438 3.015625 -13.300781 3.015625 -13.65625 C 3.015625 -13.925781 2.976562 -14.109375 2.90625 -14.203125 C 2.832031 -14.304688 2.722656 -14.359375 2.578125 -14.359375 C 2.429688 -14.359375 2.253906 -14.332031 2.046875 -14.28125 C 1.847656 -14.226562 1.632812 -14.203125 1.40625 -14.203125 C 0.957031 -14.203125 0.640625 -14.289062 0.453125 -14.46875 C 0.265625 -14.65625 0.171875 -14.914062 0.171875 -15.25 C 0.171875 -15.65625 0.425781 -16.140625 0.9375 -16.703125 C 1.445312 -17.265625 2.109375 -17.921875 2.921875 -18.671875 C 3.398438 -19.117188 3.859375 -19.554688 4.296875 -19.984375 C 4.742188 -20.421875 5.140625 -20.785156 5.484375 -21.078125 C 5.828125 -21.367188 6.09375 -21.515625 6.28125 -21.515625 C 6.488281 -21.515625 6.644531 -21.441406 6.75 -21.296875 C 6.851562 -21.148438 6.921875 -20.96875 6.953125 -20.75 C 6.992188 -20.539062 7.015625 -20.34375 7.015625 -20.15625 L 7.015625 -15.96875 L 7.671875 -15.96875 C 7.921875 -15.96875 8.125 -15.882812 8.28125 -15.71875 C 8.445312 -15.5625 8.53125 -15.359375 8.53125 -15.109375 L 8.53125 -15.0625 C 8.53125 -14.800781 8.445312 -14.59375 8.28125 -14.4375 C 8.125 -14.28125 7.921875 -14.203125 7.671875 -14.203125 L 7.015625 -14.203125 L 7.015625 -7.984375 C 7.015625 -7.003906 7.085938 -6.203125 7.234375 -5.578125 C 7.378906 -4.960938 7.5625 -4.472656 7.78125 -4.109375 C 8.007812 -3.742188 8.234375 -3.445312 8.453125 -3.21875 C 8.679688 -3 8.867188 -2.800781 9.015625 -2.625 C 9.171875 -2.445312 9.25 -2.234375 9.25 -1.984375 C 9.25 -1.628906 9.132812 -1.3125 8.90625 -1.03125 C 8.675781 -0.757812 8.375 -0.523438 8 -0.328125 C 7.625 -0.140625 7.210938 0 6.765625 0.09375 C 6.328125 0.1875 5.898438 0.234375 5.484375 0.234375 Z M 5.484375 0.234375 "/></g></g></g><g fill="#2c2c54" fill-opacity="1"><g transform="translate(132.755799, 52.210832)"><g><path d="M 7.96875 0.234375 C 6.375 0.234375 5.007812 -0.109375 3.875 -0.796875 C 2.75 -1.484375 1.890625 -2.441406 1.296875 -3.671875 C 0.703125 -4.910156 0.40625 -6.351562 0.40625 -8 C 0.40625 -9.632812 0.703125 -11.066406 1.296875 -12.296875 C 1.890625 -13.523438 2.75 -14.484375 3.875 -15.171875 C 5.007812 -15.859375 6.375 -16.203125 7.96875 -16.203125 C 9.5625 -16.203125 10.921875 -15.859375 12.046875 -15.171875 C 13.179688 -14.484375 14.046875 -13.523438 14.640625 -12.296875 C 15.234375 -11.066406 15.53125 -9.632812 15.53125 -8 C 15.53125 -6.351562 15.234375 -4.910156 14.640625 -3.671875 C 14.046875 -2.441406 13.179688 -1.484375 12.046875 -0.796875 C 10.921875 -0.109375 9.5625 0.234375 7.96875 0.234375 Z M 6.546875 -7.96875 C 6.546875 -6.78125 6.675781 -5.816406 6.9375 -5.078125 C 7.195312 -4.335938 7.539062 -3.96875 7.96875 -3.96875 C 8.394531 -3.96875 8.738281 -4.335938 9 -5.078125 C 9.257812 -5.816406 9.390625 -6.78125 9.390625 -7.96875 C 9.390625 -9.164062 9.257812 -10.132812 9 -10.875 C 8.738281 -11.613281 8.394531 -11.984375 7.96875 -11.984375 C 7.539062 -11.984375 7.195312 -11.613281 6.9375 -10.875 C 6.675781 -10.132812 6.546875 -9.164062 6.546875 -7.96875 Z M 6.546875 -7.96875 "/></g></g></g><g transform="matrix(1, 0, 0, 1, 0, -0.000000000000001443)"><g clip-path="url(#a9aa46e629)"><g fill="#ffd443" fill-opacity="0.4196"><g transform="translate(0.280648, 56.042595)"><g><path d="M 0.765625 -3.46875 C 0.765625 -4.507812 0.84375 -5.445312 1 -6.28125 C 1.164062 -7.113281 1.382812 -7.945312 1.65625 -8.78125 C 1.925781 -9.625 2.207031 -10.566406 2.5 -11.609375 C 2.789062 -12.648438 3.066406 -13.878906 3.328125 -15.296875 C 3.597656 -16.722656 3.8125 -18.414062 3.96875 -20.375 C 4.132812 -22.34375 4.21875 -24.6875 4.21875 -27.40625 C 4.21875 -30.125 4.132812 -32.460938 3.96875 -34.421875 C 3.8125 -36.390625 3.597656 -38.082031 3.328125 -39.5 C 3.066406 -40.925781 2.789062 -42.160156 2.5 -43.203125 C 2.207031 -44.242188 1.925781 -45.179688 1.65625 -46.015625 C 1.382812 -46.859375 1.164062 -47.703125 1 -48.546875 C 0.84375 -49.398438 0.765625 -50.332031 0.765625 -51.34375 C 0.765625 -52.28125 0.984375 -52.988281 1.421875 -53.46875 C 1.867188 -53.957031 2.414062 -54.296875 3.0625 -54.484375 C 3.707031 -54.671875 4.347656 -54.769531 4.984375 -54.78125 C 5.617188 -54.800781 6.140625 -54.8125 6.546875 -54.8125 L 14.078125 -54.8125 C 14.585938 -54.8125 15.132812 -54.757812 15.71875 -54.65625 C 16.300781 -54.550781 16.835938 -54.359375 17.328125 -54.078125 C 17.828125 -53.804688 18.203125 -53.378906 18.453125 -52.796875 L 18.453125 -52.828125 L 26.03125 -36.28125 C 26.382812 -35.539062 26.765625 -35.171875 27.171875 -35.171875 C 27.609375 -35.171875 27.988281 -35.523438 28.3125 -36.234375 C 29.070312 -37.835938 29.832031 -39.550781 30.59375 -41.375 C 31.363281 -43.195312 32.160156 -45.050781 32.984375 -46.9375 C 33.804688 -48.832031 34.6875 -50.671875 35.625 -52.453125 C 35.832031 -53.140625 36.1875 -53.644531 36.6875 -53.96875 C 37.195312 -54.300781 37.757812 -54.523438 38.375 -54.640625 C 39 -54.753906 39.582031 -54.8125 40.125 -54.8125 L 51.078125 -54.8125 C 51.484375 -54.8125 52.003906 -54.800781 52.640625 -54.78125 C 53.273438 -54.769531 53.914062 -54.671875 54.5625 -54.484375 C 55.207031 -54.296875 55.75 -53.957031 56.1875 -53.46875 C 56.632812 -52.988281 56.859375 -52.28125 56.859375 -51.34375 C 56.859375 -50.332031 56.773438 -49.398438 56.609375 -48.546875 C 56.453125 -47.703125 56.238281 -46.859375 55.96875 -46.015625 C 55.707031 -45.179688 55.429688 -44.242188 55.140625 -43.203125 C 54.847656 -42.160156 54.566406 -40.925781 54.296875 -39.5 C 54.023438 -38.082031 53.804688 -36.390625 53.640625 -34.421875 C 53.484375 -32.460938 53.40625 -30.125 53.40625 -27.40625 C 53.40625 -24.6875 53.484375 -22.34375 53.640625 -20.375 C 53.804688 -18.414062 54.023438 -16.722656 54.296875 -15.296875 C 54.566406 -13.878906 54.847656 -12.648438 55.140625 -11.609375 C 55.429688 -10.566406 55.707031 -9.625 55.96875 -8.78125 C 56.238281 -7.945312 56.453125 -7.113281 56.609375 -6.28125 C 56.773438 -5.445312 56.859375 -4.507812 56.859375 -3.46875 C 56.859375 -2.53125 56.632812 -1.816406 56.1875 -1.328125 C 55.75 -0.847656 55.207031 -0.507812 54.5625 -0.3125 C 53.914062 -0.125 53.273438 -0.0234375 52.640625 -0.015625 C 52.003906 -0.00390625 51.484375 0 51.078125 0 L 41.265625 0 C 40.628906 0 39.972656 -0.0234375 39.296875 -0.078125 C 38.628906 -0.128906 38.003906 -0.253906 37.421875 -0.453125 C 36.835938 -0.660156 36.363281 -1.003906 36 -1.484375 C 35.644531 -1.960938 35.46875 -2.625 35.46875 -3.46875 C 35.46875 -4.507812 35.53125 -5.445312 35.65625 -6.28125 C 35.789062 -7.113281 35.957031 -7.945312 36.15625 -8.78125 C 36.363281 -9.625 36.570312 -10.566406 36.78125 -11.609375 C 37 -12.648438 37.207031 -13.878906 37.40625 -15.296875 C 37.613281 -16.722656 37.78125 -18.414062 37.90625 -20.375 C 38.03125 -22.34375 38.09375 -24.6875 38.09375 -27.40625 L 27.90625 -9.359375 C 27.75 -8.984375 27.5 -8.691406 27.15625 -8.484375 C 26.8125 -8.285156 26.460938 -8.1875 26.109375 -8.1875 C 25.347656 -8.1875 24.773438 -8.566406 24.390625 -9.328125 L 15.265625 -26.640625 C 15.285156 -24.054688 15.378906 -21.816406 15.546875 -19.921875 C 15.710938 -18.035156 15.925781 -16.40625 16.1875 -15.03125 C 16.457031 -13.664062 16.738281 -12.472656 17.03125 -11.453125 C 17.320312 -10.441406 17.59375 -9.519531 17.84375 -8.6875 C 18.101562 -7.863281 18.316406 -7.039062 18.484375 -6.21875 C 18.648438 -5.394531 18.734375 -4.476562 18.734375 -3.46875 C 18.734375 -2.625 18.550781 -1.960938 18.1875 -1.484375 C 17.832031 -1.003906 17.363281 -0.660156 16.78125 -0.453125 C 16.195312 -0.253906 15.566406 -0.128906 14.890625 -0.078125 C 14.222656 -0.0234375 13.570312 0 12.9375 0 L 6.546875 0 C 6.140625 0 5.617188 -0.00390625 4.984375 -0.015625 C 4.347656 -0.0234375 3.707031 -0.125 3.0625 -0.3125 C 2.414062 -0.507812 1.867188 -0.847656 1.421875 -1.328125 C 0.984375 -1.816406 0.765625 -2.53125 0.765625 -3.46875 Z M 0.765625 -3.46875 "/></g></g></g><g fill="#f5ca31" fill-opacity="1"><g transform="translate(2.4, 58.161947)"><g><path d="M 0.765625 -3.46875 C 0.765625 -4.507812 0.84375 -5.445312 1 -6.28125 C 1.164062 -7.113281 1.382812 -7.945312 1.65625 -8.78125 C 1.925781 -9.625 2.207031 -10.566406 2.5 -11.609375 C 2.789062 -12.648438 3.066406 -13.878906 3.328125 -15.296875 C 3.597656 -16.722656 3.8125 -18.414062 3.96875 -20.375 C 4.132812 -22.34375 4.21875 -24.6875 4.21875 -27.40625 C 4.21875 -30.125 4.132812 -32.460938 3.96875 -34.421875 C 3.8125 -36.390625 3.597656 -38.082031 3.328125 -39.5 C 3.066406 -40.925781 2.789062 -42.160156 2.5 -43.203125 C 2.207031 -44.242188 1.925781 -45.179688 1.65625 -46.015625 C 1.382812 -46.859375 1.164062 -47.703125 1 -48.546875 C 0.84375 -49.398438 0.765625 -50.332031 0.765625 -51.34375 C 0.765625 -52.28125 0.984375 -52.988281 1.421875 -53.46875 C 1.867188 -53.957031 2.414062 -54.296875 3.0625 -54.484375 C 3.707031 -54.671875 4.347656 -54.769531 4.984375 -54.78125 C 5.617188 -54.800781 6.140625 -54.8125 6.546875 -54.8125 L 14.078125 -54.8125 C 14.585938 -54.8125 15.132812 -54.757812 15.71875 -54.65625 C 16.300781 -54.550781 16.835938 -54.359375 17.328125 -54.078125 C 17.828125 -53.804688 18.203125 -53.378906 18.453125 -52.796875 L 18.453125 -52.828125 L 26.03125 -36.28125 C 26.382812 -35.539062 26.765625 -35.171875 27.171875 -35.171875 C 27.609375 -35.171875 27.988281 -35.523438 28.3125 -36.234375 C 29.070312 -37.835938 29.832031 -39.550781 30.59375 -41.375 C 31.363281 -43.195312 32.160156 -45.050781 32.984375 -46.9375 C 33.804688 -48.832031 34.6875 -50.671875 35.625 -52.453125 C 35.832031 -53.140625 36.1875 -53.644531 36.6875 -53.96875 C 37.195312 -54.300781 37.757812 -54.523438 38.375 -54.640625 C 39 -54.753906 39.582031 -54.8125 40.125 -54.8125 L 51.078125 -54.8125 C 51.484375 -54.8125 52.003906 -54.800781 52.640625 -54.78125 C 53.273438 -54.769531 53.914062 -54.671875 54.5625 -54.484375 C 55.207031 -54.296875 55.75 -53.957031 56.1875 -53.46875 C 56.632812 -52.988281 56.859375 -52.28125 56.859375 -51.34375 C 56.859375 -50.332031 56.773438 -49.398438 56.609375 -48.546875 C 56.453125 -47.703125 56.238281 -46.859375 55.96875 -46.015625 C 55.707031 -45.179688 55.429688 -44.242188 55.140625 -43.203125 C 54.847656 -42.160156 54.566406 -40.925781 54.296875 -39.5 C 54.023438 -38.082031 53.804688 -36.390625 53.640625 -34.421875 C 53.484375 -32.460938 53.40625 -30.125 53.40625 -27.40625 C 53.40625 -24.6875 53.484375 -22.34375 53.640625 -20.375 C 53.804688 -18.414062 54.023438 -16.722656 54.296875 -15.296875 C 54.566406 -13.878906 54.847656 -12.648438 55.140625 -11.609375 C 55.429688 -10.566406 55.707031 -9.625 55.96875 -8.78125 C 56.238281 -7.945312 56.453125 -7.113281 56.609375 -6.28125 C 56.773438 -5.445312 56.859375 -4.507812 56.859375 -3.46875 C 56.859375 -2.53125 56.632812 -1.816406 56.1875 -1.328125 C 55.75 -0.847656 55.207031 -0.507812 54.5625 -0.3125 C 53.914062 -0.125 53.273438 -0.0234375 52.640625 -0.015625 C 52.003906 -0.00390625 51.484375 0 51.078125 0 L 41.265625 0 C 40.628906 0 39.972656 -0.0234375 39.296875 -0.078125 C 38.628906 -0.128906 38.003906 -0.253906 37.421875 -0.453125 C 36.835938 -0.660156 36.363281 -1.003906 36 -1.484375 C 35.644531 -1.960938 35.46875 -2.625 35.46875 -3.46875 C 35.46875 -4.507812 35.53125 -5.445312 35.65625 -6.28125 C 35.789062 -7.113281 35.957031 -7.945312 36.15625 -8.78125 C 36.363281 -9.625 36.570312 -10.566406 36.78125 -11.609375 C 37 -12.648438 37.207031 -13.878906 37.40625 -15.296875 C 37.613281 -16.722656 37.78125 -18.414062 37.90625 -20.375 C 38.03125 -22.34375 38.09375 -24.6875 38.09375 -27.40625 L 27.90625 -9.359375 C 27.75 -8.984375 27.5 -8.691406 27.15625 -8.484375 C 26.8125 -8.285156 26.460938 -8.1875 26.109375 -8.1875 C 25.347656 -8.1875 24.773438 -8.566406 24.390625 -9.328125 L 15.265625 -26.640625 C 15.285156 -24.054688 15.378906 -21.816406 15.546875 -19.921875 C 15.710938 -18.035156 15.925781 -16.40625 16.1875 -15.03125 C 16.457031 -13.664062 16.738281 -12.472656 17.03125 -11.453125 C 17.320312 -10.441406 17.59375 -9.519531 17.84375 -8.6875 C 18.101562 -7.863281 18.316406 -7.039062 18.484375 -6.21875 C 18.648438 -5.394531 18.734375 -4.476562 18.734375 -3.46875 C 18.734375 -2.625 18.550781 -1.960938 18.1875 -1.484375 C 17.832031 -1.003906 17.363281 -0.660156 16.78125 -0.453125 C 16.195312 -0.253906 15.566406 -0.128906 14.890625 -0.078125 C 14.222656 -0.0234375 13.570312 0 12.9375 0 L 6.546875 0 C 6.140625 0 5.617188 -0.00390625 4.984375 -0.015625 C 4.347656 -0.0234375 3.707031 -0.125 3.0625 -0.3125 C 2.414062 -0.507812 1.867188 -0.847656 1.421875 -1.328125 C 0.984375 -1.816406 0.765625 -2.53125 0.765625 -3.46875 Z M 0.765625 -3.46875 "/></g></g></g></g></g><g transform="matrix(1, 0, 0, 1, 56, 20)"><g clip-path="url(#1c97996a16)"><g fill="#f5ca31" fill-opacity="1"><g transform="translate(1.079139, 12.72982)"><g><path d="M 0.875 -5.84375 C 0.875 -6.382812 0.851562 -6.851562 0.8125 -7.25 C 0.78125 -7.644531 0.738281 -7.984375 0.6875 -8.265625 C 0.632812 -8.554688 0.578125 -8.804688 0.515625 -9.015625 C 0.453125 -9.222656 0.394531 -9.410156 0.34375 -9.578125 C 0.289062 -9.753906 0.242188 -9.925781 0.203125 -10.09375 C 0.171875 -10.269531 0.15625 -10.457031 0.15625 -10.65625 C 0.15625 -10.84375 0.203125 -10.984375 0.296875 -11.078125 C 0.390625 -11.179688 0.503906 -11.253906 0.640625 -11.296875 C 0.773438 -11.335938 0.90625 -11.359375 1.03125 -11.359375 C 1.164062 -11.359375 1.273438 -11.359375 1.359375 -11.359375 L 7.71875 -11.359375 C 7.957031 -11.359375 8.144531 -11.285156 8.28125 -11.140625 C 8.425781 -10.992188 8.5 -10.804688 8.5 -10.578125 L 8.5 -8.328125 C 8.5 -8.191406 8.488281 -8.050781 8.46875 -7.90625 C 8.457031 -7.757812 8.410156 -7.640625 8.328125 -7.546875 C 8.253906 -7.460938 8.128906 -7.421875 7.953125 -7.421875 C 7.753906 -7.421875 7.566406 -7.476562 7.390625 -7.59375 C 7.210938 -7.707031 7.023438 -7.851562 6.828125 -8.03125 C 6.628906 -8.207031 6.410156 -8.378906 6.171875 -8.546875 C 5.929688 -8.722656 5.660156 -8.867188 5.359375 -8.984375 C 5.066406 -9.097656 4.726562 -9.15625 4.34375 -9.15625 C 4.195312 -9.15625 4.085938 -9.109375 4.015625 -9.015625 C 3.953125 -8.929688 3.910156 -8.804688 3.890625 -8.640625 C 3.878906 -8.472656 3.875 -8.285156 3.875 -8.078125 C 3.875 -7.785156 3.894531 -7.546875 3.9375 -7.359375 C 3.988281 -7.171875 4.085938 -7.035156 4.234375 -6.953125 C 4.390625 -6.878906 4.625 -6.851562 4.9375 -6.875 C 5.175781 -6.882812 5.378906 -6.90625 5.546875 -6.9375 C 5.722656 -6.976562 5.882812 -7.015625 6.03125 -7.046875 C 6.175781 -7.078125 6.332031 -7.09375 6.5 -7.09375 C 6.707031 -7.09375 6.851562 -7.023438 6.9375 -6.890625 C 7.019531 -6.753906 7.0625 -6.609375 7.0625 -6.453125 L 7.0625 -4.875 C 7.0625 -4.71875 7.019531 -4.570312 6.9375 -4.4375 C 6.851562 -4.300781 6.707031 -4.234375 6.5 -4.234375 C 6.332031 -4.234375 6.175781 -4.25 6.03125 -4.28125 C 5.882812 -4.3125 5.722656 -4.34375 5.546875 -4.375 C 5.378906 -4.414062 5.175781 -4.441406 4.9375 -4.453125 C 4.632812 -4.460938 4.40625 -4.429688 4.25 -4.359375 C 4.101562 -4.285156 4.003906 -4.160156 3.953125 -3.984375 C 3.898438 -3.804688 3.875 -3.578125 3.875 -3.296875 C 3.875 -3.078125 3.878906 -2.882812 3.890625 -2.71875 C 3.910156 -2.5625 3.953125 -2.4375 4.015625 -2.34375 C 4.085938 -2.25 4.195312 -2.203125 4.34375 -2.203125 C 4.726562 -2.203125 5.066406 -2.257812 5.359375 -2.375 C 5.660156 -2.5 5.929688 -2.644531 6.171875 -2.8125 C 6.410156 -2.988281 6.628906 -3.160156 6.828125 -3.328125 C 7.023438 -3.503906 7.210938 -3.648438 7.390625 -3.765625 C 7.566406 -3.890625 7.753906 -3.953125 7.953125 -3.953125 C 8.128906 -3.953125 8.253906 -3.90625 8.328125 -3.8125 C 8.410156 -3.71875 8.457031 -3.597656 8.46875 -3.453125 C 8.488281 -3.316406 8.5 -3.175781 8.5 -3.03125 L 8.5 -0.78125 C 8.5 -0.550781 8.425781 -0.363281 8.28125 -0.21875 C 8.144531 -0.0703125 7.957031 0 7.71875 0 L 1.234375 0 C 1.148438 0 1.046875 0 0.921875 0 C 0.804688 -0.0078125 0.6875 -0.03125 0.5625 -0.0625 C 0.445312 -0.101562 0.347656 -0.171875 0.265625 -0.265625 C 0.191406 -0.367188 0.15625 -0.515625 0.15625 -0.703125 C 0.15625 -0.972656 0.175781 -1.21875 0.21875 -1.4375 C 0.269531 -1.664062 0.332031 -1.898438 0.40625 -2.140625 C 0.476562 -2.390625 0.550781 -2.675781 0.625 -3 C 0.695312 -3.320312 0.753906 -3.710938 0.796875 -4.171875 C 0.847656 -4.628906 0.875 -5.1875 0.875 -5.84375 Z M 0.875 -5.84375 "/></g></g></g><g fill="#f5ca31" fill-opacity="1"><g transform="translate(9.828143, 12.72982)"><g><path d="M 1.125 -8.609375 C 1.03125 -8.898438 0.9375 -9.140625 0.84375 -9.328125 C 0.75 -9.523438 0.65625 -9.6875 0.5625 -9.8125 C 0.46875 -9.9375 0.382812 -10.046875 0.3125 -10.140625 C 0.238281 -10.242188 0.179688 -10.347656 0.140625 -10.453125 C 0.0976562 -10.554688 0.078125 -10.679688 0.078125 -10.828125 C 0.078125 -10.984375 0.125 -11.097656 0.21875 -11.171875 C 0.3125 -11.242188 0.429688 -11.289062 0.578125 -11.3125 C 0.734375 -11.34375 0.894531 -11.359375 1.0625 -11.359375 L 3.96875 -11.359375 C 4.09375 -11.359375 4.210938 -11.34375 4.328125 -11.3125 C 4.441406 -11.28125 4.535156 -11.222656 4.609375 -11.140625 C 4.691406 -11.066406 4.734375 -10.960938 4.734375 -10.828125 C 4.734375 -10.660156 4.71875 -10.523438 4.6875 -10.421875 C 4.65625 -10.316406 4.617188 -10.21875 4.578125 -10.125 C 4.546875 -10.03125 4.515625 -9.914062 4.484375 -9.78125 C 4.460938 -9.65625 4.453125 -9.472656 4.453125 -9.234375 C 4.453125 -9.035156 4.46875 -8.820312 4.5 -8.59375 C 4.5625 -8.125 4.679688 -7.5625 4.859375 -6.90625 C 5.035156 -6.25 5.257812 -5.441406 5.53125 -4.484375 C 5.582031 -4.304688 5.632812 -4.15625 5.6875 -4.03125 C 5.75 -3.914062 5.804688 -3.859375 5.859375 -3.859375 C 5.910156 -3.867188 5.957031 -3.9375 6 -4.0625 C 6.050781 -4.1875 6.097656 -4.328125 6.140625 -4.484375 C 6.265625 -4.953125 6.359375 -5.382812 6.421875 -5.78125 C 6.492188 -6.1875 6.539062 -6.570312 6.5625 -6.9375 C 6.582031 -7.300781 6.582031 -7.664062 6.5625 -8.03125 C 6.539062 -8.40625 6.503906 -8.804688 6.453125 -9.234375 C 6.421875 -9.460938 6.378906 -9.644531 6.328125 -9.78125 C 6.285156 -9.914062 6.242188 -10.03125 6.203125 -10.125 C 6.160156 -10.21875 6.125 -10.316406 6.09375 -10.421875 C 6.070312 -10.523438 6.0625 -10.660156 6.0625 -10.828125 C 6.0625 -10.960938 6.097656 -11.066406 6.171875 -11.140625 C 6.242188 -11.222656 6.335938 -11.28125 6.453125 -11.3125 C 6.578125 -11.34375 6.703125 -11.359375 6.828125 -11.359375 L 9.515625 -11.359375 C 9.691406 -11.359375 9.851562 -11.34375 10 -11.3125 C 10.144531 -11.289062 10.265625 -11.242188 10.359375 -11.171875 C 10.453125 -11.097656 10.5 -10.984375 10.5 -10.828125 C 10.5 -10.679688 10.476562 -10.554688 10.4375 -10.453125 C 10.394531 -10.347656 10.332031 -10.242188 10.25 -10.140625 C 10.175781 -10.046875 10.09375 -9.9375 10 -9.8125 C 9.914062 -9.6875 9.828125 -9.523438 9.734375 -9.328125 C 9.640625 -9.140625 9.546875 -8.898438 9.453125 -8.609375 C 9.296875 -8.097656 9.160156 -7.648438 9.046875 -7.265625 C 8.929688 -6.878906 8.828125 -6.53125 8.734375 -6.21875 C 8.648438 -5.90625 8.566406 -5.601562 8.484375 -5.3125 C 8.398438 -5.019531 8.316406 -4.71875 8.234375 -4.40625 C 8.148438 -4.09375 8.054688 -3.738281 7.953125 -3.34375 C 7.847656 -2.957031 7.722656 -2.503906 7.578125 -1.984375 C 7.460938 -1.566406 7.363281 -1.226562 7.28125 -0.96875 C 7.195312 -0.707031 7.113281 -0.507812 7.03125 -0.375 C 6.945312 -0.238281 6.863281 -0.144531 6.78125 -0.09375 C 6.695312 -0.0390625 6.59375 -0.0078125 6.46875 0 C 6.351562 0.0078125 6.21875 0.015625 6.0625 0.015625 L 4.578125 0.015625 C 4.421875 0.015625 4.28125 0.0078125 4.15625 0 C 4.039062 -0.0078125 3.9375 -0.0390625 3.84375 -0.09375 C 3.75 -0.144531 3.65625 -0.238281 3.5625 -0.375 C 3.476562 -0.507812 3.390625 -0.707031 3.296875 -0.96875 C 3.210938 -1.226562 3.109375 -1.566406 2.984375 -1.984375 C 2.847656 -2.503906 2.726562 -2.957031 2.625 -3.34375 C 2.519531 -3.726562 2.421875 -4.078125 2.328125 -4.390625 C 2.242188 -4.710938 2.160156 -5.019531 2.078125 -5.3125 C 2.003906 -5.601562 1.921875 -5.90625 1.828125 -6.21875 C 1.742188 -6.53125 1.644531 -6.878906 1.53125 -7.265625 C 1.414062 -7.648438 1.28125 -8.097656 1.125 -8.609375 Z M 1.125 -8.609375 "/></g></g></g><g fill="#f5ca31" fill-opacity="1"><g transform="translate(20.409065, 12.72982)"><g><path d="M 0.875 -5.84375 C 0.875 -6.382812 0.851562 -6.851562 0.8125 -7.25 C 0.78125 -7.644531 0.738281 -7.984375 0.6875 -8.265625 C 0.632812 -8.554688 0.578125 -8.804688 0.515625 -9.015625 C 0.453125 -9.222656 0.394531 -9.410156 0.34375 -9.578125 C 0.289062 -9.753906 0.242188 -9.925781 0.203125 -10.09375 C 0.171875 -10.269531 0.15625 -10.457031 0.15625 -10.65625 C 0.15625 -10.84375 0.203125 -10.984375 0.296875 -11.078125 C 0.390625 -11.179688 0.503906 -11.253906 0.640625 -11.296875 C 0.773438 -11.335938 0.90625 -11.359375 1.03125 -11.359375 C 1.164062 -11.359375 1.273438 -11.359375 1.359375 -11.359375 L 7.71875 -11.359375 C 7.957031 -11.359375 8.144531 -11.285156 8.28125 -11.140625 C 8.425781 -10.992188 8.5 -10.804688 8.5 -10.578125 L 8.5 -8.328125 C 8.5 -8.191406 8.488281 -8.050781 8.46875 -7.90625 C 8.457031 -7.757812 8.410156 -7.640625 8.328125 -7.546875 C 8.253906 -7.460938 8.128906 -7.421875 7.953125 -7.421875 C 7.753906 -7.421875 7.566406 -7.476562 7.390625 -7.59375 C 7.210938 -7.707031 7.023438 -7.851562 6.828125 -8.03125 C 6.628906 -8.207031 6.410156 -8.378906 6.171875 -8.546875 C 5.929688 -8.722656 5.660156 -8.867188 5.359375 -8.984375 C 5.066406 -9.097656 4.726562 -9.15625 4.34375 -9.15625 C 4.195312 -9.15625 4.085938 -9.109375 4.015625 -9.015625 C 3.953125 -8.929688 3.910156 -8.804688 3.890625 -8.640625 C 3.878906 -8.472656 3.875 -8.285156 3.875 -8.078125 C 3.875 -7.785156 3.894531 -7.546875 3.9375 -7.359375 C 3.988281 -7.171875 4.085938 -7.035156 4.234375 -6.953125 C 4.390625 -6.878906 4.625 -6.851562 4.9375 -6.875 C 5.175781 -6.882812 5.378906 -6.90625 5.546875 -6.9375 C 5.722656 -6.976562 5.882812 -7.015625 6.03125 -7.046875 C 6.175781 -7.078125 6.332031 -7.09375 6.5 -7.09375 C 6.707031 -7.09375 6.851562 -7.023438 6.9375 -6.890625 C 7.019531 -6.753906 7.0625 -6.609375 7.0625 -6.453125 L 7.0625 -4.875 C 7.0625 -4.71875 7.019531 -4.570312 6.9375 -4.4375 C 6.851562 -4.300781 6.707031 -4.234375 6.5 -4.234375 C 6.332031 -4.234375 6.175781 -4.25 6.03125 -4.28125 C 5.882812 -4.3125 5.722656 -4.34375 5.546875 -4.375 C 5.378906 -4.414062 5.175781 -4.441406 4.9375 -4.453125 C 4.632812 -4.460938 4.40625 -4.429688 4.25 -4.359375 C 4.101562 -4.285156 4.003906 -4.160156 3.953125 -3.984375 C 3.898438 -3.804688 3.875 -3.578125 3.875 -3.296875 C 3.875 -3.078125 3.878906 -2.882812 3.890625 -2.71875 C 3.910156 -2.5625 3.953125 -2.4375 4.015625 -2.34375 C 4.085938 -2.25 4.195312 -2.203125 4.34375 -2.203125 C 4.726562 -2.203125 5.066406 -2.257812 5.359375 -2.375 C 5.660156 -2.5 5.929688 -2.644531 6.171875 -2.8125 C 6.410156 -2.988281 6.628906 -3.160156 6.828125 -3.328125 C 7.023438 -3.503906 7.210938 -3.648438 7.390625 -3.765625 C 7.566406 -3.890625 7.753906 -3.953125 7.953125 -3.953125 C 8.128906 -3.953125 8.253906 -3.90625 8.328125 -3.8125 C 8.410156 -3.71875 8.457031 -3.597656 8.46875 -3.453125 C 8.488281 -3.316406 8.5 -3.175781 8.5 -3.03125 L 8.5 -0.78125 C 8.5 -0.550781 8.425781 -0.363281 8.28125 -0.21875 C 8.144531 -0.0703125 7.957031 0 7.71875 0 L 1.234375 0 C 1.148438 0 1.046875 0 0.921875 0 C 0.804688 -0.0078125 0.6875 -0.03125 0.5625 -0.0625 C 0.445312 -0.101562 0.347656 -0.171875 0.265625 -0.265625 C 0.191406 -0.367188 0.15625 -0.515625 0.15625 -0.703125 C 0.15625 -0.972656 0.175781 -1.21875 0.21875 -1.4375 C 0.269531 -1.664062 0.332031 -1.898438 0.40625 -2.140625 C 0.476562 -2.390625 0.550781 -2.675781 0.625 -3 C 0.695312 -3.320312 0.753906 -3.710938 0.796875 -4.171875 C 0.847656 -4.628906 0.875 -5.1875 0.875 -5.84375 Z M 0.875 -5.84375 "/></g></g></g><g fill="#f5ca31" fill-opacity="1"><g transform="translate(29.158069, 12.72982)"><g><path d="M 0.875 -5.6875 C 0.875 -6.25 0.851562 -6.734375 0.8125 -7.140625 C 0.78125 -7.546875 0.738281 -7.894531 0.6875 -8.1875 C 0.632812 -8.476562 0.578125 -8.734375 0.515625 -8.953125 C 0.453125 -9.171875 0.394531 -9.363281 0.34375 -9.53125 C 0.289062 -9.707031 0.242188 -9.882812 0.203125 -10.0625 C 0.171875 -10.238281 0.15625 -10.429688 0.15625 -10.640625 C 0.15625 -10.835938 0.203125 -10.984375 0.296875 -11.078125 C 0.390625 -11.179688 0.503906 -11.253906 0.640625 -11.296875 C 0.773438 -11.335938 0.90625 -11.359375 1.03125 -11.359375 C 1.164062 -11.359375 1.273438 -11.359375 1.359375 -11.359375 L 2.6875 -11.359375 C 2.78125 -11.359375 2.90625 -11.351562 3.0625 -11.34375 C 3.21875 -11.34375 3.367188 -11.3125 3.515625 -11.25 C 3.660156 -11.195312 3.765625 -11.09375 3.828125 -10.9375 L 3.828125 -10.953125 L 6.515625 -5.828125 C 6.515625 -6.367188 6.492188 -6.832031 6.453125 -7.21875 C 6.421875 -7.613281 6.375 -7.953125 6.3125 -8.234375 C 6.257812 -8.523438 6.203125 -8.773438 6.140625 -8.984375 C 6.085938 -9.191406 6.035156 -9.378906 5.984375 -9.546875 C 5.929688 -9.722656 5.882812 -9.894531 5.84375 -10.0625 C 5.8125 -10.238281 5.796875 -10.429688 5.796875 -10.640625 C 5.796875 -10.835938 5.84375 -10.984375 5.9375 -11.078125 C 6.03125 -11.179688 6.144531 -11.253906 6.28125 -11.296875 C 6.414062 -11.335938 6.546875 -11.359375 6.671875 -11.359375 C 6.804688 -11.359375 6.914062 -11.359375 7 -11.359375 L 8.328125 -11.359375 C 8.410156 -11.359375 8.519531 -11.359375 8.65625 -11.359375 C 8.789062 -11.359375 8.921875 -11.335938 9.046875 -11.296875 C 9.179688 -11.253906 9.296875 -11.179688 9.390625 -11.078125 C 9.484375 -10.984375 9.53125 -10.835938 9.53125 -10.640625 C 9.53125 -10.429688 9.507812 -10.238281 9.46875 -10.0625 C 9.4375 -9.882812 9.394531 -9.707031 9.34375 -9.53125 C 9.289062 -9.363281 9.234375 -9.171875 9.171875 -8.953125 C 9.109375 -8.734375 9.050781 -8.476562 9 -8.1875 C 8.945312 -7.894531 8.898438 -7.546875 8.859375 -7.140625 C 8.828125 -6.734375 8.8125 -6.25 8.8125 -5.6875 C 8.8125 -5.125 8.828125 -4.632812 8.859375 -4.21875 C 8.898438 -3.8125 8.945312 -3.460938 9 -3.171875 C 9.050781 -2.878906 9.109375 -2.625 9.171875 -2.40625 C 9.234375 -2.1875 9.289062 -1.988281 9.34375 -1.8125 C 9.394531 -1.644531 9.4375 -1.472656 9.46875 -1.296875 C 9.507812 -1.128906 9.53125 -0.9375 9.53125 -0.71875 C 9.53125 -0.519531 9.484375 -0.367188 9.390625 -0.265625 C 9.296875 -0.171875 9.179688 -0.101562 9.046875 -0.0625 C 8.921875 -0.03125 8.789062 -0.0078125 8.65625 0 C 8.519531 0 8.410156 0 8.328125 0 L 7 0 C 6.925781 0 6.832031 0 6.71875 0 C 6.613281 -0.0078125 6.5 -0.0234375 6.375 -0.046875 C 6.257812 -0.0664062 6.15625 -0.109375 6.0625 -0.171875 C 5.96875 -0.234375 5.894531 -0.320312 5.84375 -0.4375 L 3.171875 -5.53125 C 3.171875 -4.988281 3.1875 -4.519531 3.21875 -4.125 C 3.257812 -3.738281 3.304688 -3.398438 3.359375 -3.109375 C 3.410156 -2.828125 3.46875 -2.582031 3.53125 -2.375 C 3.59375 -2.164062 3.648438 -1.972656 3.703125 -1.796875 C 3.753906 -1.628906 3.796875 -1.457031 3.828125 -1.28125 C 3.859375 -1.113281 3.875 -0.925781 3.875 -0.71875 C 3.875 -0.519531 3.828125 -0.367188 3.734375 -0.265625 C 3.648438 -0.171875 3.539062 -0.101562 3.40625 -0.0625 C 3.269531 -0.03125 3.132812 -0.0078125 3 0 C 2.875 0 2.769531 0 2.6875 0 L 1.359375 0 C 1.273438 0 1.164062 0 1.03125 0 C 0.90625 -0.0078125 0.773438 -0.03125 0.640625 -0.0625 C 0.503906 -0.101562 0.390625 -0.171875 0.296875 -0.265625 C 0.203125 -0.367188 0.15625 -0.519531 0.15625 -0.71875 C 0.15625 -0.9375 0.171875 -1.128906 0.203125 -1.296875 C 0.242188 -1.472656 0.289062 -1.644531 0.34375 -1.8125 C 0.394531 -1.988281 0.453125 -2.1875 0.515625 -2.40625 C 0.578125 -2.625 0.632812 -2.878906 0.6875 -3.171875 C 0.738281 -3.460938 0.78125 -3.8125 0.8125 -4.21875 C 0.851562 -4.632812 0.875 -5.125 0.875 -5.6875 Z M 0.875 -5.6875 "/></g></g></g><g fill="#f5ca31" fill-opacity="1"><g transform="translate(38.854612, 12.72982)"><g><path d="M 0.15625 -8.15625 L 0.15625 -10.5625 C 0.15625 -10.800781 0.226562 -10.992188 0.375 -11.140625 C 0.519531 -11.285156 0.71875 -11.359375 0.96875 -11.359375 L 8.078125 -11.359375 C 8.316406 -11.359375 8.507812 -11.285156 8.65625 -11.140625 C 8.8125 -10.992188 8.890625 -10.800781 8.890625 -10.5625 L 8.890625 -8.15625 C 8.890625 -8.039062 8.84375 -7.941406 8.75 -7.859375 C 8.664062 -7.785156 8.566406 -7.75 8.453125 -7.75 C 8.296875 -7.75 8.144531 -7.78125 8 -7.84375 C 7.863281 -7.914062 7.726562 -8 7.59375 -8.09375 C 7.457031 -8.1875 7.316406 -8.28125 7.171875 -8.375 C 7.023438 -8.46875 6.863281 -8.546875 6.6875 -8.609375 C 6.507812 -8.679688 6.3125 -8.71875 6.09375 -8.71875 L 5.96875 -8.71875 L 5.96875 -5.6875 C 5.96875 -5.125 5.984375 -4.632812 6.015625 -4.21875 C 6.054688 -3.8125 6.101562 -3.460938 6.15625 -3.171875 C 6.207031 -2.878906 6.265625 -2.625 6.328125 -2.40625 C 6.390625 -2.1875 6.445312 -1.988281 6.5 -1.8125 C 6.5625 -1.644531 6.609375 -1.472656 6.640625 -1.296875 C 6.671875 -1.128906 6.6875 -0.9375 6.6875 -0.71875 C 6.6875 -0.519531 6.640625 -0.367188 6.546875 -0.265625 C 6.460938 -0.171875 6.351562 -0.101562 6.21875 -0.0625 C 6.082031 -0.03125 5.945312 -0.0078125 5.8125 0 C 5.6875 0 5.578125 0 5.484375 0 L 3.453125 0 C 3.367188 0 3.257812 0 3.125 0 C 3 -0.0078125 2.867188 -0.03125 2.734375 -0.0625 C 2.597656 -0.101562 2.484375 -0.171875 2.390625 -0.265625 C 2.296875 -0.367188 2.25 -0.519531 2.25 -0.71875 C 2.25 -0.9375 2.265625 -1.128906 2.296875 -1.296875 C 2.335938 -1.472656 2.382812 -1.644531 2.4375 -1.8125 C 2.5 -1.988281 2.554688 -2.1875 2.609375 -2.40625 C 2.671875 -2.625 2.726562 -2.878906 2.78125 -3.171875 C 2.84375 -3.460938 2.890625 -3.8125 2.921875 -4.21875 C 2.953125 -4.632812 2.96875 -5.125 2.96875 -5.6875 L 2.96875 -8.71875 L 2.953125 -8.71875 C 2.734375 -8.71875 2.535156 -8.679688 2.359375 -8.609375 C 2.179688 -8.546875 2.019531 -8.46875 1.875 -8.375 C 1.726562 -8.28125 1.585938 -8.1875 1.453125 -8.09375 C 1.316406 -8 1.175781 -7.914062 1.03125 -7.84375 C 0.894531 -7.78125 0.742188 -7.75 0.578125 -7.75 C 0.460938 -7.75 0.363281 -7.785156 0.28125 -7.859375 C 0.195312 -7.941406 0.15625 -8.039062 0.15625 -8.15625 Z M 0.15625 -8.15625 "/></g></g></g><g fill="#f5ca31" fill-opacity="1"><g transform="translate(47.90367, 12.72982)"><g><path d="M 0.875 -5.6875 C 0.875 -6.25 0.851562 -6.734375 0.8125 -7.140625 C 0.78125 -7.546875 0.738281 -7.894531 0.6875 -8.1875 C 0.632812 -8.476562 0.578125 -8.734375 0.515625 -8.953125 C 0.453125 -9.171875 0.394531 -9.363281 0.34375 -9.53125 C 0.289062 -9.707031 0.242188 -9.882812 0.203125 -10.0625 C 0.171875 -10.238281 0.15625 -10.429688 0.15625 -10.640625 C 0.15625 -10.835938 0.203125 -10.984375 0.296875 -11.078125 C 0.390625 -11.179688 0.503906 -11.253906 0.640625 -11.296875 C 0.773438 -11.335938 0.90625 -11.359375 1.03125 -11.359375 C 1.164062 -11.359375 1.273438 -11.359375 1.359375 -11.359375 L 3.390625 -11.359375 C 3.472656 -11.359375 3.578125 -11.359375 3.703125 -11.359375 C 3.835938 -11.359375 3.972656 -11.335938 4.109375 -11.296875 C 4.242188 -11.253906 4.359375 -11.179688 4.453125 -11.078125 C 4.546875 -10.984375 4.59375 -10.835938 4.59375 -10.640625 C 4.59375 -10.429688 4.570312 -10.238281 4.53125 -10.0625 C 4.5 -9.882812 4.457031 -9.707031 4.40625 -9.53125 C 4.351562 -9.363281 4.296875 -9.171875 4.234375 -8.953125 C 4.171875 -8.734375 4.113281 -8.476562 4.0625 -8.1875 C 4.007812 -7.894531 3.960938 -7.546875 3.921875 -7.140625 C 3.890625 -6.734375 3.875 -6.25 3.875 -5.6875 C 3.875 -5.125 3.890625 -4.632812 3.921875 -4.21875 C 3.960938 -3.8125 4.007812 -3.460938 4.0625 -3.171875 C 4.113281 -2.878906 4.171875 -2.625 4.234375 -2.40625 C 4.296875 -2.1875 4.351562 -1.988281 4.40625 -1.8125 C 4.457031 -1.644531 4.5 -1.472656 4.53125 -1.296875 C 4.570312 -1.128906 4.59375 -0.9375 4.59375 -0.71875 C 4.59375 -0.519531 4.546875 -0.367188 4.453125 -0.265625 C 4.359375 -0.171875 4.242188 -0.101562 4.109375 -0.0625 C 3.972656 -0.03125 3.835938 -0.0078125 3.703125 0 C 3.578125 0 3.472656 0 3.390625 0 L 1.359375 0 C 1.273438 0 1.164062 0 1.03125 0 C 0.90625 -0.0078125 0.773438 -0.03125 0.640625 -0.0625 C 0.503906 -0.101562 0.390625 -0.171875 0.296875 -0.265625 C 0.203125 -0.367188 0.15625 -0.519531 0.15625 -0.71875 C 0.15625 -0.9375 0.171875 -1.128906 0.203125 -1.296875 C 0.242188 -1.472656 0.289062 -1.644531 0.34375 -1.8125 C 0.394531 -1.988281 0.453125 -2.1875 0.515625 -2.40625 C 0.578125 -2.625 0.632812 -2.878906 0.6875 -3.171875 C 0.738281 -3.460938 0.78125 -3.8125 0.8125 -4.21875 C 0.851562 -4.632812 0.875 -5.125 0.875 -5.6875 Z M 0.875 -5.6875 "/></g></g></g><g fill="#f5ca31" fill-opacity="1"><g transform="translate(52.65719, 12.72982)"><g><path d="M 1.359375 0 C 1.273438 0 1.164062 0 1.03125 0 C 0.90625 -0.0078125 0.773438 -0.03125 0.640625 -0.0625 C 0.503906 -0.101562 0.390625 -0.171875 0.296875 -0.265625 C 0.203125 -0.367188 0.15625 -0.519531 0.15625 -0.71875 C 0.15625 -0.9375 0.171875 -1.128906 0.203125 -1.296875 C 0.242188 -1.472656 0.289062 -1.644531 0.34375 -1.8125 C 0.394531 -1.988281 0.453125 -2.1875 0.515625 -2.40625 C 0.578125 -2.625 0.632812 -2.878906 0.6875 -3.171875 C 0.738281 -3.460938 0.78125 -3.8125 0.8125 -4.21875 C 0.851562 -4.632812 0.875 -5.125 0.875 -5.6875 C 0.875 -6.25 0.851562 -6.734375 0.8125 -7.140625 C 0.78125 -7.546875 0.738281 -7.894531 0.6875 -8.1875 C 0.632812 -8.476562 0.578125 -8.734375 0.515625 -8.953125 C 0.453125 -9.171875 0.394531 -9.363281 0.34375 -9.53125 C 0.289062 -9.707031 0.242188 -9.882812 0.203125 -10.0625 C 0.171875 -10.238281 0.15625 -10.429688 0.15625 -10.640625 C 0.15625 -10.835938 0.203125 -10.984375 0.296875 -11.078125 C 0.390625 -11.179688 0.503906 -11.253906 0.640625 -11.296875 C 0.773438 -11.335938 0.90625 -11.359375 1.03125 -11.359375 C 1.164062 -11.359375 1.273438 -11.359375 1.359375 -11.359375 L 4.328125 -11.359375 C 5.054688 -11.359375 5.695312 -11.222656 6.25 -10.953125 C 6.8125 -10.679688 7.28125 -10.289062 7.65625 -9.78125 C 8.03125 -9.28125 8.3125 -8.679688 8.5 -7.984375 C 8.695312 -7.296875 8.796875 -6.53125 8.796875 -5.6875 C 8.796875 -4.84375 8.695312 -4.070312 8.5 -3.375 C 8.3125 -2.675781 8.03125 -2.078125 7.65625 -1.578125 C 7.28125 -1.078125 6.8125 -0.6875 6.25 -0.40625 C 5.695312 -0.132812 5.054688 0 4.328125 0 Z M 3.875 -8.53125 L 3.875 -2.84375 C 3.875 -2.6875 3.894531 -2.566406 3.9375 -2.484375 C 3.988281 -2.410156 4.050781 -2.359375 4.125 -2.328125 C 4.195312 -2.296875 4.265625 -2.28125 4.328125 -2.28125 C 4.523438 -2.28125 4.710938 -2.375 4.890625 -2.5625 C 5.066406 -2.75 5.21875 -3 5.34375 -3.3125 C 5.476562 -3.632812 5.578125 -4 5.640625 -4.40625 C 5.710938 -4.8125 5.75 -5.238281 5.75 -5.6875 C 5.75 -6.132812 5.710938 -6.5625 5.640625 -6.96875 C 5.578125 -7.375 5.476562 -7.734375 5.34375 -8.046875 C 5.21875 -8.367188 5.066406 -8.625 4.890625 -8.8125 C 4.710938 -9 4.523438 -9.09375 4.328125 -9.09375 C 4.265625 -9.09375 4.195312 -9.078125 4.125 -9.046875 C 4.050781 -9.023438 3.988281 -8.972656 3.9375 -8.890625 C 3.894531 -8.816406 3.875 -8.695312 3.875 -8.53125 Z M 3.875 -8.53125 "/></g></g></g><g fill="#f5ca31" fill-opacity="1"><g transform="translate(61.382505, 12.72982)"><g><path d="M 0.875 -5.84375 C 0.875 -6.382812 0.851562 -6.851562 0.8125 -7.25 C 0.78125 -7.644531 0.738281 -7.984375 0.6875 -8.265625 C 0.632812 -8.554688 0.578125 -8.804688 0.515625 -9.015625 C 0.453125 -9.222656 0.394531 -9.410156 0.34375 -9.578125 C 0.289062 -9.753906 0.242188 -9.925781 0.203125 -10.09375 C 0.171875 -10.269531 0.15625 -10.457031 0.15625 -10.65625 C 0.15625 -10.84375 0.203125 -10.984375 0.296875 -11.078125 C 0.390625 -11.179688 0.503906 -11.253906 0.640625 -11.296875 C 0.773438 -11.335938 0.90625 -11.359375 1.03125 -11.359375 C 1.164062 -11.359375 1.273438 -11.359375 1.359375 -11.359375 L 7.71875 -11.359375 C 7.957031 -11.359375 8.144531 -11.285156 8.28125 -11.140625 C 8.425781 -10.992188 8.5 -10.804688 8.5 -10.578125 L 8.5 -8.328125 C 8.5 -8.191406 8.488281 -8.050781 8.46875 -7.90625 C 8.457031 -7.757812 8.410156 -7.640625 8.328125 -7.546875 C 8.253906 -7.460938 8.128906 -7.421875 7.953125 -7.421875 C 7.753906 -7.421875 7.566406 -7.476562 7.390625 -7.59375 C 7.210938 -7.707031 7.023438 -7.851562 6.828125 -8.03125 C 6.628906 -8.207031 6.410156 -8.378906 6.171875 -8.546875 C 5.929688 -8.722656 5.660156 -8.867188 5.359375 -8.984375 C 5.066406 -9.097656 4.726562 -9.15625 4.34375 -9.15625 C 4.195312 -9.15625 4.085938 -9.109375 4.015625 -9.015625 C 3.953125 -8.929688 3.910156 -8.804688 3.890625 -8.640625 C 3.878906 -8.472656 3.875 -8.285156 3.875 -8.078125 C 3.875 -7.785156 3.894531 -7.546875 3.9375 -7.359375 C 3.988281 -7.171875 4.085938 -7.035156 4.234375 -6.953125 C 4.390625 -6.878906 4.625 -6.851562 4.9375 -6.875 C 5.175781 -6.882812 5.378906 -6.90625 5.546875 -6.9375 C 5.722656 -6.976562 5.882812 -7.015625 6.03125 -7.046875 C 6.175781 -7.078125 6.332031 -7.09375 6.5 -7.09375 C 6.707031 -7.09375 6.851562 -7.023438 6.9375 -6.890625 C 7.019531 -6.753906 7.0625 -6.609375 7.0625 -6.453125 L 7.0625 -4.875 C 7.0625 -4.71875 7.019531 -4.570312 6.9375 -4.4375 C 6.851562 -4.300781 6.707031 -4.234375 6.5 -4.234375 C 6.332031 -4.234375 6.175781 -4.25 6.03125 -4.28125 C 5.882812 -4.3125 5.722656 -4.34375 5.546875 -4.375 C 5.378906 -4.414062 5.175781 -4.441406 4.9375 -4.453125 C 4.632812 -4.460938 4.40625 -4.429688 4.25 -4.359375 C 4.101562 -4.285156 4.003906 -4.160156 3.953125 -3.984375 C 3.898438 -3.804688 3.875 -3.578125 3.875 -3.296875 C 3.875 -3.078125 3.878906 -2.882812 3.890625 -2.71875 C 3.910156 -2.5625 3.953125 -2.4375 4.015625 -2.34375 C 4.085938 -2.25 4.195312 -2.203125 4.34375 -2.203125 C 4.726562 -2.203125 5.066406 -2.257812 5.359375 -2.375 C 5.660156 -2.5 5.929688 -2.644531 6.171875 -2.8125 C 6.410156 -2.988281 6.628906 -3.160156 6.828125 -3.328125 C 7.023438 -3.503906 7.210938 -3.648438 7.390625 -3.765625 C 7.566406 -3.890625 7.753906 -3.953125 7.953125 -3.953125 C 8.128906 -3.953125 8.253906 -3.90625 8.328125 -3.8125 C 8.410156 -3.71875 8.457031 -3.597656 8.46875 -3.453125 C 8.488281 -3.316406 8.5 -3.175781 8.5 -3.03125 L 8.5 -0.78125 C 8.5 -0.550781 8.425781 -0.363281 8.28125 -0.21875 C 8.144531 -0.0703125 7.957031 0 7.71875 0 L 1.234375 0 C 1.148438 0 1.046875 0 0.921875 0 C 0.804688 -0.0078125 0.6875 -0.03125 0.5625 -0.0625 C 0.445312 -0.101562 0.347656 -0.171875 0.265625 -0.265625 C 0.191406 -0.367188 0.15625 -0.515625 0.15625 -0.703125 C 0.15625 -0.972656 0.175781 -1.21875 0.21875 -1.4375 C 0.269531 -1.664062 0.332031 -1.898438 0.40625 -2.140625 C 0.476562 -2.390625 0.550781 -2.675781 0.625 -3 C 0.695312 -3.320312 0.753906 -3.710938 0.796875 -4.171875 C 0.847656 -4.628906 0.875 -5.1875 0.875 -5.84375 Z M 0.875 -5.84375 "/></g></g></g></g></g></svg>